HIERARCHY
ROOT hip
{
	OFFSET 0.000000 0.000000 0.000000
	CHANNELS 6 Xposition Yposition Zposition Zrotation Yrotation Xrotation 
	JOINT lhipjoint
	{
		OFFSET 0.000000 0.000000 0.000000
		CHANNELS 3 Zrotation Yrotation Xrotation
		JOINT lfemur
		{
			OFFSET 1.363060 -1.794630 0.839290
			CHANNELS 3 Zrotation Yrotation Xrotation
			JOINT ltibia
			{
				OFFSET 2.448110 -6.726130 0.000000
				CHANNELS 3 Zrotation Yrotation Xrotation
				JOINT lfoot
				{
					OFFSET 2.562200 -7.039590 0.000000
					CHANNELS 3 Zrotation Yrotation Xrotation
					JOINT ltoes
					{
						OFFSET 0.157640 -0.433110 2.322550
						CHANNELS 3 Zrotation Yrotation Xrotation
						End Site
						{
							OFFSET 0.000000 0.000000 0.000000
						}
					}
				}
			}
		}
	}
	JOINT rhipjoint
	{
		OFFSET 0.000000 0.000000 0.000000
		CHANNELS 3 Zrotation Yrotation Xrotation
		JOINT rfemur
		{
			OFFSET -1.305520 -1.794630 0.839290
			CHANNELS 3 Zrotation Yrotation Xrotation
			JOINT rtibia
			{
				OFFSET -2.542530 -6.985550 0.000000
				CHANNELS 3 Zrotation Yrotation Xrotation
				JOINT rfoot
				{
					OFFSET -2.568260 -7.056230 0.000000
					CHANNELS 3 Zrotation Yrotation Xrotation
					JOINT rtoes
					{
						OFFSET -0.164730 -0.452590 2.363150
						CHANNELS 3 Zrotation Yrotation Xrotation
						End Site
						{
							OFFSET 0.000000 0.000000 0.000000
						}
					}
				}
			}
		}
	}
	JOINT lowerback
	{
		OFFSET 0.000000 0.000000 0.000000
		CHANNELS 3 Zrotation Yrotation Xrotation
		JOINT upperback
		{
			OFFSET 0.028270 2.035590 -0.193380
			CHANNELS 3 Zrotation Yrotation Xrotation
			JOINT thorax
			{
				OFFSET 0.056720 2.048850 -0.042750
				CHANNELS 3 Zrotation Yrotation Xrotation
				JOINT lowerneck
				{
					OFFSET 0.000000 0.000000 0.000000
					CHANNELS 3 Zrotation Yrotation Xrotation
					JOINT upperneck
					{
						OFFSET -0.054170 1.746240 0.172020
						CHANNELS 3 Zrotation Yrotation Xrotation
						JOINT head
						{
							OFFSET 0.104070 1.761360 -0.123970
							CHANNELS 3 Zrotation Yrotation Xrotation
							End Site
							{
								OFFSET 0.000000 0.000000 0.000000
							}
						}
					}
				}
				JOINT lclavicle
				{
					OFFSET 0.000000 0.000000 0.000000
					CHANNELS 3 Zrotation Yrotation Xrotation
					JOINT lhumerus
					{
						OFFSET 3.362410 1.200890 -0.311210
						CHANNELS 3 Zrotation Yrotation Xrotation
						JOINT lradius
						{
							OFFSET 4.983000 -0.000000 -0.000000
							CHANNELS 3 Zrotation Yrotation Xrotation
							JOINT lwrist
							{
								OFFSET 3.483560 -0.000000 -0.000000
								CHANNELS 3 Zrotation Yrotation Xrotation
								JOINT lhand
								{
									OFFSET 0.000000 0.000000 0.000000
									CHANNELS 3 Zrotation Yrotation Xrotation
									JOINT lfingers
									{
										OFFSET 0.715260 -0.000000 -0.000000
										CHANNELS 3 Zrotation Yrotation Xrotation
										End Site
										{
											OFFSET 0.000000 0.000000 0.000000
										}
									}
								}
								JOINT lthumb
								{
									OFFSET 0.000000 0.000000 0.000000
									CHANNELS 3 Zrotation Yrotation Xrotation
									End Site
									{
										OFFSET 0.000000 0.000000 0.000000
									}
								}
							}
						}
					}
				}
				JOINT rclavicle
				{
					OFFSET 0.000000 0.000000 0.000000
					CHANNELS 3 Zrotation Yrotation Xrotation
					JOINT rhumerus
					{
						OFFSET -3.136600 1.374050 -0.404650
						CHANNELS 3 Zrotation Yrotation Xrotation
						JOINT rradius
						{
							OFFSET -5.241900 -0.000000 -0.000000
							CHANNELS 3 Zrotation Yrotation Xrotation
							JOINT rwrist
							{
								OFFSET -3.444170 -0.000000 -0.000000
								CHANNELS 3 Zrotation Yrotation Xrotation
								JOINT rhand
								{
									OFFSET 0.000000 0.000000 0.000000
									CHANNELS 3 Zrotation Yrotation Xrotation
									JOINT rfingers
									{
										OFFSET -0.622530 -0.000000 -0.000000
										CHANNELS 3 Zrotation Yrotation Xrotation
										End Site
										{
											OFFSET 0.000000 0.000000 0.000000
										}
									}
								}
								JOINT rthumb
								{
									OFFSET 0.000000 0.000000 0.000000
									CHANNELS 3 Zrotation Yrotation Xrotation
									End Site
									{
										OFFSET 0.000000 0.000000 0.000000
									}
								}
							}
						}
					}
				}
			}
		}
	}
}
MOTION
Frames: 4
Frame Time: 0.008333
-9.145833 28.634216 -8.298209 -169.762550 76.865274 -172.178240 -3.053933 0.957220 0.329940 -12.270081 -3.934329 -38.369357 9.415555 15.819415 56.802910 0.406447 3.085516 16.966363 2.223800 -9.317500 -26.793800 -1.273571 -2.996773 0.590343 20.932257 12.401768 -48.279655 -13.921048 -18.500960 71.766172 -0.146421 -4.359841 15.917493 -2.407100 9.667000 -27.905100 -6.522357 0.349837 21.765054 0.006108 -1.281143 -3.279887 2.052889 0.345515 0.027742 -8.737068 -5.994151 -7.956413 1.282396 -6.222042 3.719706 5.822800 -2.480700 2.703600 -0.364626 0.061753 -0.069210 -73.936342 25.373258 8.016775 15.553969 -37.443234 -5.564023 -0.996858 0.813177 177.536457 24.204853 -0.341352 0.262500 -7.125000 0.000000 0.000000 -2.632400 30.639000 0.924200 0.639492 2.951609 4.841653 69.844668 -52.075839 36.157158 -31.661806 42.494367 -8.470165 0.209772 -3.673098 2.466259 -22.086903 1.622121 -2.325300 7.125000 0.000000 0.000000 3.084800 -23.907400 1.572200 
-8.747644 28.303058 -8.335926 -168.658529 76.644456 -171.650573 -3.112479 1.034042 0.422052 -12.165585 -3.700426 -35.985819 8.410084 15.145916 53.055159 0.348179 4.399047 18.438725 2.702400 -10.196900 -29.616800 -1.200375 -3.059168 0.610732 21.378890 11.817241 -45.827505 -12.784393 -18.047617 68.253093 -0.406686 -4.029807 18.267185 -2.504500 9.846000 -28.479500 -6.519463 0.208755 21.033701 0.101138 -1.371290 -3.293345 2.579884 0.246119 0.202156 -9.151247 -5.841965 -7.616596 1.215717 -6.026157 3.953471 5.889900 -2.433400 2.673200 -0.432646 -0.056072 -0.150915 -74.858769 28.810004 7.648198 16.905287 -39.191797 -6.270822 -1.020295 0.784223 175.027103 24.758125 -0.467013 0.223100 -7.125000 0.000000 0.000000 -2.180700 30.528200 0.771200 0.745151 2.981604 4.939457 70.661674 -53.567267 34.886326 -30.902217 41.628870 -8.121129 0.133213 -3.693732 2.980124 -22.247353 1.945949 -2.485399 7.125000 0.000000 0.000000 2.998700 -23.520600 1.554900 
-8.343921 27.955707 -8.374464 -167.604017 76.405826 -171.074568 -3.163940 1.109518 0.509110 -12.031071 -3.516056 -33.715685 7.478022 14.431140 49.413706 0.334273 5.637412 20.093367 3.091600 -10.841800 -31.748200 -1.128060 -3.124793 0.637248 21.782963 11.249132 -43.495451 -11.679520 -17.537266 64.778095 -0.679679 -3.637206 20.456910 -2.631300 10.072800 -29.212800 -6.465937 0.070080 20.150359 0.177885 -1.452935 -3.312945 2.963852 0.160948 0.366145 -9.421810 -5.705414 -7.148060 1.177542 -5.867951 4.144354 5.946700 -2.396900 2.584900 -0.508989 -0.157011 -0.267208 -75.699177 32.156442 6.962439 18.164173 -40.769796 -6.964296 -1.045655 0.753458 172.723522 25.582135 -0.420228 0.262200 -7.125000 0.000000 0.000000 -1.523800 30.606600 0.535800 0.854471 3.017905 5.063489 71.571873 -55.080461 33.776783 -30.234110 40.837737 -7.814228 0.083619 -3.725005 3.278433 -22.269947 2.000064 -2.522900 7.125000 0.000000 0.000000 3.002600 -23.421800 1.563700 
-7.945630 27.593391 -8.413514 -166.094086 76.108689 -169.947204 -3.196211 1.174374 0.585779 -11.739224 -3.384700 -31.639428 6.613316 13.683809 45.880902 0.390408 6.677544 21.924452 3.355100 -11.248800 -33.123800 -1.051217 -3.200368 0.673861 22.247698 10.758923 -41.308837 -10.618901 -16.972332 61.346388 -0.925150 -3.358557 22.400203 -2.708700 10.207800 -29.652300 -6.269013 -0.091917 19.192745 0.266035 -1.533006 -3.342595 3.342823 0.076309 0.511665 -9.708031 -5.591468 -6.676228 1.183648 -5.739750 4.311448 6.031100 -2.369300 2.496800 -0.573550 -0.258375 -0.429098 -76.670531 35.387851 5.986780 19.386057 -42.238740 -7.662198 -1.071515 0.722507 170.597567 26.490908 -0.351228 0.315100 -7.125000 0.000000 0.000000 -0.801900 30.709600 0.279900 0.960365 3.060387 5.205291 72.482514 -56.480547 32.753505 -29.555382 40.014504 -7.502048 0.048256 -3.760423 3.480742 -22.156287 1.894372 -2.478700 7.125000 0.000000 0.000000 3.099800 -23.501200 1.608900 
